<?xml version="1.0" standalone="no"?>
<!DOCTYPE svg PUBLIC "-//W3C//DTD SVG 20010904//EN"
 "http://www.w3.org/TR/2001/REC-SVG-20010904/DTD/svg10.dtd">
<svg version="1.0" xmlns="http://www.w3.org/2000/svg"
 width="600.000000pt" height="600.000000pt" viewBox="0 0 600.000000 600.000000"
 preserveAspectRatio="xMidYMid meet">
<metadata>
Created by potrace 1.14, written by Peter Selinger 2001-2017
</metadata>
<g transform="translate(0.000000,600.000000) scale(0.100000,-0.100000)"
fill="#000000" stroke="none">
<path d="M4142 5540 c-13 -14 -31 -24 -39 -22 -27 6 -43 -17 -31 -43 12 -27 4
-60 -13 -49 -18 11 -28 -16 -17 -48 14 -39 85 -98 119 -98 15 0 31 -5 34 -11
5 -7 12 -6 23 4 26 22 83 27 89 8 14 -44 44 -101 53 -101 26 0 -19 -128 -48
-138 -5 -1 -13 17 -16 40 -6 42 -43 98 -64 98 -5 0 -12 7 -16 15 -4 12 -22 15
-78 14 -40 0 -77 0 -83 1 -25 6 -44 -2 -76 -31 -19 -17 -44 -38 -56 -46 -28
-19 -30 -43 -4 -43 26 0 32 -12 33 -59 0 -27 -6 -47 -21 -62 -12 -13 -25 -35
-28 -49 -15 -60 -69 -94 -80 -50 -5 21 -7 21 -45 23 -26 2 -58 26 -58 44 0 7
-12 16 -27 19 -16 4 -35 15 -43 25 -25 31 -129 88 -163 90 -35 2 -87 -16 -87
-29 0 -5 -10 -14 -22 -20 -37 -19 -207 -124 -617 -384 -59 -36 -162 -101 -231
-144 -69 -43 -154 -96 -190 -119 -36 -23 -162 -102 -280 -175 -430 -266 -550
-341 -555 -350 -3 -5 10 -35 30 -66 37 -58 44 -75 50 -129 5 -49 46 -189 59
-205 7 -8 52 -157 100 -330 48 -173 92 -329 98 -346 9 -25 7 -43 -11 -96 -12
-35 -23 -75 -26 -87 -2 -12 -7 -31 -10 -41 -3 -10 -8 -28 -10 -39 -3 -12 -7
-31 -10 -43 -4 -20 -10 -51 -21 -112 -2 -10 -5 -20 -7 -22 -3 -3 -59 -7 -242
-19 -234 -15 -435 -54 -466 -91 -9 -11 -12 -77 -10 -262 2 -213 5 -291 10
-324 2 -12 72 -45 136 -63 51 -15 56 -19 42 -30 -20 -14 -22 -32 -5 -37 26 -9
-5 -30 -37 -25 -22 4 -47 -1 -75 -15 -40 -20 -43 -20 -52 -4 -9 16 -11 16 -28
1 -17 -15 -19 -15 -29 2 -17 31 -46 4 -48 -46 -1 -24 -7 -49 -14 -57 -10 -13
-15 -12 -33 5 -44 41 -105 52 -134 23 -18 -17 -31 -21 -82 -26 -14 -2 -25 -9
-26 -17 0 -8 -2 -22 -2 -31 -1 -10 -12 -18 -29 -20 -15 -2 -32 -12 -38 -23 -5
-11 -20 -35 -33 -52 -19 -27 -26 -31 -46 -23 -12 4 -29 4 -36 0 -8 -5 -17 -7
-22 -4 -4 2 -12 -5 -18 -16 -9 -16 -8 -25 1 -36 10 -13 10 -17 -2 -25 -19 -12
-26 -11 -48 3 -15 9 -26 9 -48 -1 -25 -11 -29 -10 -46 10 -11 14 -21 19 -25
12 -6 -8 -58 -21 -109 -25 -7 -1 -13 -9 -13 -17 0 -9 -7 -27 -16 -39 -14 -21
-14 -25 5 -56 19 -30 19 -35 6 -46 -13 -11 -13 -15 -3 -21 10 -7 9 -9 -4 -9
-21 0 -23 11 -6 28 20 20 -2 13 -30 -10 -16 -12 -20 -19 -9 -15 11 4 20 1 23
-7 3 -8 14 -13 25 -11 10 2 19 -2 19 -8 0 -7 4 -6 10 3 6 10 10 11 10 3 0 -7
5 -13 10 -13 7 0 7 6 0 19 -5 11 -10 23 -10 28 1 4 8 -4 16 -19 14 -27 42 -41
29 -15 -4 6 -1 5 7 -3 14 -16 55 -20 76 -7 7 5 12 3 12 -5 0 -9 3 -9 10 2 9
13 10 13 10 0 0 -9 3 -11 8 -5 12 17 32 16 32 -2 0 -9 7 -24 16 -34 12 -13 13
-25 7 -51 -11 -43 -5 -78 13 -78 8 0 14 -8 14 -17 0 -23 42 -43 64 -31 11 6
16 5 16 -4 0 -9 3 -9 10 2 9 13 12 13 23 0 12 -15 46 -23 48 -11 3 25 9 44 15
49 4 4 4 -1 1 -10 -3 -9 -1 -19 6 -22 9 -3 9 -5 0 -5 -7 -1 -13 -5 -13 -11 0
-5 7 -7 15 -4 10 4 13 15 9 37 -4 24 -3 28 4 17 6 -8 8 -18 5 -24 -3 -5 -1 -6
5 -2 8 5 10 2 6 -8 -3 -9 -1 -16 4 -16 19 0 23 18 7 33 -20 21 -19 31 2 23 15
-5 15 -4 -1 9 -11 8 -15 15 -9 15 14 0 34 -25 26 -33 -3 -4 -1 -7 6 -7 7 0 9
-5 6 -10 -8 -12 15 -13 34 -1 13 8 12 15 -5 46 -10 20 -29 38 -41 41 -18 5
-20 10 -13 35 5 16 6 29 2 29 -4 0 -1 4 6 9 11 6 10 11 -3 24 -9 9 -13 22 -9
28 4 8 9 7 16 -2 7 -10 8 -7 5 12 -2 16 1 26 9 26 7 0 10 -6 7 -12 -3 -9 6
-12 27 -10 25 2 28 0 19 -11 -6 -8 -8 -14 -3 -14 5 0 2 -5 -7 -10 -22 -13 -14
-56 11 -56 12 0 16 5 12 16 -5 13 -3 13 11 1 9 -7 17 -10 17 -5 0 5 32 9 71 8
49 -1 75 4 85 13 8 8 14 11 14 8 0 -4 9 3 21 16 11 13 17 18 13 10 -6 -11 3
-12 48 -7 34 4 65 3 84 -5 16 -7 38 -13 50 -14 11 -1 27 -5 34 -10 10 -6 12
-4 7 8 -3 9 -2 19 4 22 5 4 9 3 8 -2 -3 -19 2 -33 12 -33 5 0 7 5 3 11 -5 8
-2 9 11 2 10 -6 27 -8 37 -5 11 3 24 -1 29 -9 6 -10 9 -7 9 11 0 15 3 20 8 13
13 -20 64 -24 90 -7 20 13 26 14 34 3 7 -10 9 -9 5 7 -3 13 1 21 9 21 7 0 11
-4 8 -8 -2 -4 5 -6 16 -3 11 2 29 6 40 8 11 3 25 8 30 11 13 8 65 -43 74 -72
8 -26 70 -57 102 -50 13 2 21 1 19 -3 -3 -5 2 -11 11 -14 11 -4 15 -2 11 7 -5
15 19 17 41 3 6 -4 22 0 34 8 12 9 19 16 14 16 -5 0 -2 8 6 18 9 9 22 31 31
47 13 26 13 34 2 55 -8 14 -12 33 -9 42 6 22 -33 45 -49 29 -17 -17 -27 -13
-27 10 0 12 5 19 13 16 6 -2 21 1 32 6 33 18 47 17 41 -1 -5 -15 -5 -15 7 0 8
10 24 19 35 21 12 2 25 6 28 10 11 11 26 8 19 -3 -3 -6 1 -7 9 -4 9 3 13 11 9
18 -3 6 4 2 16 -8 19 -17 21 -17 15 -3 -5 15 -3 16 17 9 28 -10 59 -5 59 9 0
6 5 7 11 3 8 -5 8 -9 -1 -14 -8 -5 -7 -9 5 -13 10 -5 14 -3 9 5 -5 7 1 9 20 6
19 -4 24 -2 16 7 -7 8 -5 12 5 12 8 0 15 -6 15 -13 0 -7 5 -16 12 -20 6 -4 9
-3 6 2 -3 5 2 17 12 27 17 17 17 17 15 -8 -2 -14 1 -25 7 -25 6 0 7 8 4 17 -6
15 -5 15 13 -1 20 -18 42 -14 40 7 0 9 -2 9 -6 0 -2 -7 -9 -13 -14 -13 -6 0
-7 5 -3 12 4 6 3 8 -3 5 -6 -4 -14 0 -17 8 -4 12 -2 13 12 7 9 -5 23 -7 30 -5
6 3 12 -3 12 -11 0 -12 7 -15 24 -12 14 2 27 -1 30 -7 2 -7 5 -2 5 11 1 12 6
22 12 22 5 0 8 -4 4 -9 -3 -6 3 -10 12 -9 10 0 28 -2 40 -5 12 -3 27 1 34 9
13 16 34 19 24 4 -3 -6 -2 -10 3 -10 6 0 13 7 16 16 3 8 10 13 15 9 5 -3 12
-1 16 5 8 13 25 3 25 -13 0 -8 -3 -8 -9 2 -6 9 -11 10 -15 2 -4 -6 -12 -9 -17
-6 -15 10 -10 -2 8 -16 14 -12 16 -12 8 0 -6 11 -4 13 8 8 10 -4 20 0 26 11
10 16 10 16 11 -1 0 -16 7 -18 47 -14 40 3 44 2 28 -9 -10 -7 -21 -11 -25 -9
-4 3 -14 -3 -21 -13 -13 -15 -12 -16 4 -3 14 11 17 11 17 0 0 -11 2 -11 10 1
6 10 10 11 10 3 0 -7 5 -13 11 -13 5 0 8 4 4 9 -3 5 0 13 6 17 8 4 9 3 5 -4
-4 -7 -2 -12 4 -12 6 0 9 -4 6 -8 -3 -5 1 -9 9 -9 8 0 11 5 8 11 -5 8 -3 8 8
0 8 -5 23 -9 34 -8 11 2 30 4 41 6 15 1 22 9 22 26 0 26 37 68 47 52 3 -6 11
-10 16 -10 6 0 7 6 2 13 -11 18 -13 38 -1 31 5 -3 14 -16 19 -28 9 -19 9 -19
6 6 -3 22 -1 26 16 22 11 -2 23 -7 26 -12 8 -11 30 -9 39 3 8 12 122 14 122 3
0 -5 5 -8 11 -8 5 0 7 5 4 10 -8 12 11 13 33 1 19 -10 45 4 55 29 3 9 5 5 5
-10 -1 -34 18 -101 36 -125 18 -24 20 -39 4 -29 -7 4 -8 3 -4 -4 4 -8 0 -12
-11 -12 -17 -1 -17 -1 0 -11 9 -6 15 -15 11 -21 -4 -7 -9 -6 -15 3 -4 7 -11
10 -16 6 -9 -9 17 -28 29 -21 4 3 9 -1 10 -8 0 -7 2 -18 2 -23 1 -6 10 -21 20
-35 11 -14 16 -18 13 -7 -4 9 -2 17 3 17 6 0 10 -4 10 -8 0 -5 7 -9 15 -9 22
0 19 5 -14 21 -16 9 -32 12 -37 8 -5 -4 -3 0 4 10 9 11 10 18 2 23 -6 3 -7 11
-4 17 5 7 2 8 -7 4 -8 -4 -5 0 6 10 17 14 17 16 3 11 -20 -7 -25 8 -7 19 16
10 29 -17 18 -37 -6 -12 -5 -20 1 -24 6 -4 8 -11 5 -16 -4 -5 -1 -9 5 -9 6 0
10 8 9 18 -3 38 0 44 19 26 9 -10 15 -20 14 -22 -2 -3 2 -9 10 -14 10 -8 10
-9 -2 -5 -8 2 -14 10 -13 16 2 6 -2 11 -7 11 -11 0 -13 -11 -4 -34 3 -9 10
-14 14 -11 5 3 7 -6 4 -20 -5 -26 9 -34 22 -13 4 6 3 8 -4 5 -6 -5 -8 0 -5 13
8 29 20 33 19 7 -1 -13 4 -21 11 -20 7 2 12 -2 10 -8 -1 -6 9 -18 23 -27 13
-9 21 -12 17 -5 -5 8 -1 11 14 8 12 -2 24 -7 28 -11 3 -4 -2 -4 -11 -1 -10 4
-18 2 -18 -3 0 -6 12 -10 26 -10 14 0 23 4 20 8 -2 4 5 8 17 9 12 0 16 -1 10
-4 -7 -3 -13 -11 -13 -18 0 -18 20 -24 48 -14 28 11 62 -8 55 -30 -3 -9 2 -6
11 6 15 20 38 25 52 10 4 -4 14 -1 23 5 9 7 8 3 -3 -8 -13 -14 -20 -16 -23 -6
-4 10 -8 10 -21 0 -13 -11 -14 -11 -7 1 6 10 4 12 -4 7 -15 -10 -7 -19 21 -23
12 -2 27 -8 33 -13 7 -6 15 -6 22 1 7 7 21 8 34 3 21 -7 46 -8 80 -5 5 1 7 6
3 13 -4 7 -3 8 5 4 9 -6 9 -12 -1 -24 -11 -15 -10 -15 14 1 32 20 38 21 38 6
0 -5 -5 -7 -12 -3 -7 4 -8 3 -4 -4 4 -6 14 -8 23 -5 12 5 14 3 8 -7 -5 -9 -4
-11 4 -6 6 4 9 11 6 16 -3 4 2 10 10 14 8 3 17 0 21 -6 4 -7 3 -8 -4 -4 -8 5
-10 1 -5 -9 4 -12 8 -13 13 -5 5 7 13 9 20 5 7 -5 11 -4 8 1 -4 5 50 10 125
11 182 2 267 7 267 15 0 3 11 5 25 3 14 -1 25 1 25 5 0 5 22 7 49 7 27 -1 47
1 45 4 -2 4 3 10 12 13 22 9 26 8 18 -5 -3 -6 5 -4 18 5 14 9 28 13 31 9 4 -3
7 0 7 8 0 12 2 12 9 0 5 -7 7 -57 4 -111 l-4 -97 32 -27 c70 -59 216 -99 464
-125 85 -9 376 -7 460 3 127 16 265 67 281 105 4 9 8 79 9 156 2 77 4 205 6
285 2 80 -1 152 -6 159 -6 10 -4 12 6 6 11 -7 11 -5 -1 10 -9 11 -10 16 -2 11
14 -9 15 -1 3 23 -25 46 -138 95 -279 122 -34 6 -61 14 -59 16 3 2 38 12 78
22 115 27 196 88 279 210 40 59 83 161 94 226 3 17 10 53 15 80 13 70 6 333
-13 435 -57 317 -211 644 -411 869 -78 88 -263 251 -286 251 -6 0 0 43 15 105
3 11 26 119 52 240 33 158 53 230 70 255 13 19 25 45 27 57 2 12 18 33 37 45
19 13 43 39 54 59 53 92 74 116 110 123 20 4 45 17 56 28 18 19 18 23 5 38 -8
9 -15 23 -15 31 0 21 -34 56 -62 64 -13 4 -32 19 -43 32 -22 27 -97 44 -109
24 -4 -5 -13 -8 -21 -5 -24 10 -74 -28 -95 -73 -20 -42 -22 -67 -7 -90 8 -13
1 -33 -11 -33 -4 1 -18 10 -31 21 -22 18 -22 21 -8 37 11 12 14 30 11 57 -4
38 -2 41 45 73 69 47 71 67 11 87 -27 9 -51 23 -54 31 -3 8 -11 13 -18 12 -7
-2 -12 7 -13 18 0 12 -12 36 -27 55 -16 18 -29 42 -30 53 0 12 -2 33 -3 48 -1
15 -8 35 -16 44 -8 9 -12 26 -11 38 4 34 -97 108 -133 97 -5 -2 -14 -4 -20 -5
-5 -2 -22 -9 -37 -16 -22 -11 -30 -11 -43 0 -13 11 -19 9 -39 -9 -13 -13 -33
-21 -44 -19 -22 3 -62 -28 -62 -48 0 -17 -29 -25 -72 -20 -23 3 -44 -2 -64
-15 -16 -10 -36 -19 -44 -19 -8 0 0 9 18 20 39 24 72 84 54 102 -6 6 -25 11
-42 11 -27 0 -31 3 -26 21 3 11 1 25 -5 32 -6 7 -11 35 -12 62 -2 39 2 53 16
61 23 15 21 24 -8 38 -34 15 -58 7 -79 -28 -19 -32 -34 -37 -43 -13 -4 10 -16
15 -37 13 -59 -4 -65 0 -77 42 -10 32 -10 45 -1 60 10 16 10 21 -3 26 -10 3
-14 12 -10 22 4 9 7 36 7 61 1 25 5 48 10 51 12 8 -72 128 -89 128 -7 1 -18
-8 -25 -18 -12 -19 -13 -19 -42 2 -41 29 -75 29 -104 -3z m113 -620 c-3 -5
-11 -10 -16 -10 -6 0 -7 5 -4 10 3 6 11 10 16 10 6 0 7 -4 4 -10z m349 -60
c17 -17 -23 -50 -47 -41 -12 5 -22 13 -21 20 1 6 2 18 3 27 1 12 7 15 29 9 15
-3 31 -10 36 -15z m540 -155 c-31 -23 -52 -19 -47 9 6 29 32 38 52 18 11 -11
11 -15 -5 -27z m-1800 0 c-10 -8 -23 -14 -29 -14 -5 -1 1 8 15 19 14 10 27 17
29 14 3 -2 -4 -11 -15 -19z m327 -2 c9 -9 -5 -28 -40 -58 l-23 -20 5 45 c3 25
6 46 6 47 2 5 45 -7 52 -14z m-391 -32 c0 -5 -10 -11 -22 -14 -22 -6 -22 -6
-4 8 23 17 26 18 26 6z m-45 -57 c13 -9 29 -13 35 -9 5 3 10 -1 10 -10 0 -14
-6 -15 -32 -9 -18 4 -49 6 -68 6 l-35 -2 25 20 c30 24 34 24 65 4z m376 -67
c10 -3 19 -13 19 -22 0 -15 -2 -16 -17 -4 -9 8 -17 12 -17 10 -1 -3 -10 0 -21
6 -17 10 -18 14 -5 40 l14 28 4 -26 c2 -16 11 -29 23 -32z m-516 3 c-3 -5 -14
-10 -23 -10 -15 0 -15 2 -2 10 20 13 33 13 25 0z m-92 -94 c18 -13 43 -27 57
-31 40 -12 50 -25 44 -54 -4 -14 -12 -32 -18 -40 -16 -20 19 -42 49 -31 20 8
25 4 39 -28 18 -39 18 -98 1 -111 -5 -5 -71 -27 -145 -51 -74 -23 -196 -61
-270 -85 -74 -24 -184 -59 -245 -78 -60 -19 -183 -58 -272 -87 l-162 -51 -56
17 c-30 10 -55 20 -54 23 0 3 101 69 225 146 124 77 311 195 417 262 106 68
201 127 212 132 11 5 47 28 80 50 33 23 61 41 63 41 2 0 18 -11 35 -24z m2304
-1197 c53 -37 180 -155 194 -180 17 -32 1 -45 -54 -47 -29 0 -65 -5 -81 -11
-25 -10 -32 -8 -65 21 -49 43 -81 141 -68 206 4 23 13 42 18 42 6 0 31 -14 56
-31z m268 -339 c111 -76 195 -244 196 -390 0 -58 -14 -103 -47 -153 l-27 -41
-24 85 c-14 46 -26 91 -28 99 -16 76 -126 275 -217 392 -30 38 -30 39 12 51
27 7 92 -13 135 -43z m284 -603 c15 -68 23 -325 12 -379 -4 -18 -11 -33 -16
-32 -6 1 -33 47 -61 103 -29 56 -59 110 -68 119 -9 11 -16 39 -17 71 -2 43 2
56 17 67 34 23 55 48 75 86 26 50 42 40 58 -35z m-4309 -42 c0 -8 -5 -17 -11
-21 -16 -9 -30 18 -17 33 12 15 28 8 28 -12z m70 11 c0 -8 -7 -16 -15 -20 -10
-4 -15 1 -15 14 0 11 7 20 15 20 8 0 15 -6 15 -14z m68 2 c-6 -18 -28 -21 -28
-4 0 9 7 16 16 16 9 0 14 -5 12 -12z m-278 -28 c0 -22 -12 -32 -25 -22 -21 15
-4 59 17 46 4 -3 8 -14 8 -24z m70 5 c0 -30 -25 -34 -33 -6 -5 22 0 31 20 31
7 0 13 -11 13 -25z m-142 -13 c2 -15 -2 -22 -12 -22 -11 0 -16 9 -16 26 0 31
23 28 28 -4z m-64 2 c7 -18 0 -34 -15 -34 -5 0 -9 11 -9 25 0 28 15 34 24 9z
m-59 -19 c0 -10 -6 -20 -12 -22 -8 -3 -13 5 -13 22 0 17 5 25 13 23 6 -3 12
-13 12 -23z m-55 0 c0 -8 0 -18 1 -22 0 -4 -4 -9 -10 -11 -6 -2 -11 8 -11 22
0 14 5 26 10 26 6 0 10 -7 10 -15z m-40 -26 c0 -10 -4 -19 -10 -19 -5 0 -10
12 -10 26 0 14 4 23 10 19 6 -3 10 -15 10 -26z m-38 -4 c3 -14 1 -28 -3 -31
-5 -3 -9 9 -9 25 0 38 6 40 12 6z m-25 -10 c0 -8 -4 -15 -9 -15 -4 0 -8 7 -8
15 0 8 4 15 8 15 5 0 9 -7 9 -15z m4718 -308 c31 -106 5 -234 -55 -277 -52
-37 -59 -29 -43 48 15 71 22 160 23 307 l1 90 29 -55 c15 -31 36 -82 45 -113z
m-285 -203 c0 -8 -5 -12 -10 -9 -6 4 -8 11 -5 16 9 14 15 11 15 -7z m-16 -143
c-15 -36 -41 -64 -53 -57 -4 3 -27 7 -51 11 -104 15 -154 41 -134 71 5 8 45
32 89 53 l80 39 42 -41 42 -40 -15 -36z m-534 32 c6 -6 -61 7 -73 14 -4 2 -5
9 -2 14 5 8 59 -13 75 -28z m-50 -39 c0 -31 -22 -28 -27 4 -2 14 2 22 12 22 9
0 15 -10 15 -26z m40 0 c0 -8 -5 -12 -10 -9 -6 4 -8 11 -5 16 9 14 15 11 15
-7z m578 -259 c-1 -14 -6 -25 -10 -25 -13 0 -21 28 -14 46 9 23 26 7 24 -21z
m62 0 c0 -16 -6 -25 -15 -25 -15 0 -21 31 -8 43 13 14 23 6 23 -18z m60 -16
c0 -10 -6 -19 -14 -19 -11 0 -15 29 -7 48 4 10 21 -12 21 -29z m55 -7 c-2 -27
-20 -25 -23 3 -2 18 1 23 11 20 7 -3 13 -14 12 -23z m46 -5 c-1 -4 -1 -14 -1
-22 0 -8 -4 -15 -10 -15 -5 0 -10 12 -10 26 0 14 5 24 11 22 6 -2 10 -7 10
-11z m39 -33 c0 -14 -4 -23 -9 -20 -7 5 -8 23 -2 44 4 12 11 -3 11 -24z m40
-20 c0 -14 -4 -22 -10 -19 -5 3 -10 17 -10 31 0 14 4 22 10 19 6 -3 10 -17 10
-31z m-2716 8 c3 -5 -1 -9 -9 -9 -8 0 -15 4 -15 9 0 4 4 8 9 8 6 0 12 -4 15
-8z m2744 -19 c0 -21 -2 -23 -10 -9 -5 9 -6 21 -3 26 10 16 13 12 13 -17z
m-2755 -18 c-3 -9 -8 -14 -10 -11 -3 3 -2 9 2 15 9 16 15 13 8 -4z m-589 -3
c3 -5 -1 -9 -9 -9 -8 0 -12 4 -9 9 3 4 7 8 9 8 2 0 6 -4 9 -8z m706 4 c0 -2
-6 -9 -14 -15 -11 -9 -16 -9 -22 0 -4 7 -3 9 4 5 6 -3 13 -2 17 4 6 10 15 14
15 6z m-665 -26 c-3 -5 -12 -10 -18 -10 -7 0 -6 4 3 10 19 12 23 12 15 0z
m-248 -25 c0 -8 -4 -12 -9 -9 -5 3 -6 10 -3 15 9 13 12 11 12 -6z m83 11 c0
-2 -7 -7 -16 -10 -8 -3 -12 -2 -9 4 6 10 25 14 25 6z m60 -20 c0 -3 -4 -8 -10
-11 -5 -3 -10 -1 -10 4 0 6 5 11 10 11 6 0 10 -2 10 -4z m-80 -24 c0 -5 -7 -9
-15 -9 -8 0 -12 4 -9 9 3 4 9 8 15 8 5 0 9 -4 9 -8z m114 -1 c-9 -9 -34 -9
-34 -1 0 5 9 8 20 7 10 -1 17 -3 14 -6z m-2194 -161 c0 -5 -5 -10 -11 -10 -5
0 -7 5 -4 10 3 6 8 10 11 10 2 0 4 -4 4 -10z m913 -25 c-3 -9 -8 -14 -10 -11
-3 3 -2 9 2 15 9 16 15 13 8 -4z m2228 -12 c13 -16 12 -17 -3 -4 -10 7 -18 15
-18 17 0 8 8 3 21 -13z m19 -27 c0 -3 -4 -8 -10 -11 -5 -3 -10 -1 -10 4 0 6 5
11 10 11 6 0 10 -2 10 -4z m140 -41 c0 -2 -9 -9 -19 -15 -14 -7 -22 -7 -27 2
-4 6 -3 8 2 5 6 -3 16 -2 24 4 17 10 20 11 20 4z m55 -15 c3 -5 1 -10 -4 -10
-6 0 -11 5 -11 10 0 6 2 10 4 10 3 0 8 -4 11 -10z m88 -51 c-8 -8 -13 -7 -18
2 -5 8 -4 10 3 5 7 -4 12 -2 12 5 0 7 3 9 7 6 4 -4 2 -12 -4 -18z m70 13 c4 9
6 9 6 1 2 -20 -16 -24 -30 -5 -13 15 -12 16 3 4 13 -10 17 -10 21 0z"/>
<path d="M2920 1124 c0 -8 5 -12 10 -9 6 4 8 11 5 16 -9 14 -15 11 -15 -7z"/>
<path d="M2993 1127 c-3 -5 0 -14 6 -20 9 -9 10 -7 5 8 -7 17 -5 18 7 8 12
-10 19 -10 33 0 14 10 13 12 -14 12 -17 1 -34 -3 -37 -8z"/>
<path d="M3080 1130 c-8 -5 -12 -12 -9 -15 4 -3 12 1 19 10 14 17 11 19 -10 5z"/>
<path d="M3195 951 c-3 -5 -2 -12 3 -15 5 -3 9 1 9 9 0 17 -3 19 -12 6z"/>
<path d="M3116 931 c-3 -5 -20 -7 -37 -5 -57 7 -103 -63 -64 -96 23 -19 18
-36 -12 -35 -23 0 -27 -4 -25 -20 6 -35 50 -84 72 -80 11 2 20 -1 20 -6 0 -6
5 -7 10 -4 6 3 10 1 10 -4 0 -6 3 -10 8 -10 4 1 9 0 12 -1 13 -5 70 -4 70 1 0
4 10 6 22 5 11 0 23 5 26 13 3 9 0 11 -8 6 -9 -6 -11 -4 -5 5 6 10 11 9 22 -5
7 -11 13 -15 13 -11 0 5 8 2 17 -5 11 -10 14 -10 9 -1 -4 7 -2 12 4 12 6 0 4
8 -6 17 -16 17 -16 18 7 23 20 5 24 12 22 39 -1 21 -9 38 -23 48 -16 11 -20
22 -16 39 3 12 1 26 -4 29 -6 4 -9 14 -8 23 2 10 -5 17 -17 19 -19 3 -19 3 -1
-5 14 -6 16 -11 8 -16 -7 -4 -12 -4 -12 0 0 4 -6 -1 -14 -11 -13 -18 -15 -18
-50 13 -40 35 -42 36 -50 23z m144 -226 c14 -19 14 -19 -2 -6 -10 7 -18 18
-18 24 0 6 1 8 3 6 1 -2 9 -13 17 -24z"/>
<path d="M694 903 c3 -7 -1 -13 -8 -13 -8 0 -13 -11 -13 -26 0 -16 2 -21 7
-14 6 9 9 9 14 -1 3 -8 5 -6 4 6 -1 11 3 29 9 41 10 17 9 21 -3 21 -8 0 -13
-6 -10 -14z"/>
<path d="M3373 845 c0 -8 4 -15 9 -15 4 0 8 4 8 9 0 6 -4 12 -8 15 -5 3 -9 -1
-9 -9z"/>
<path d="M2743 777 c-36 -25 -44 -38 -49 -84 -3 -25 0 -33 16 -38 30 -10 24
-21 -19 -39 -55 -21 -68 -48 -41 -84 17 -22 28 -27 60 -26 21 0 37 -2 35 -6
-6 -9 32 -20 40 -12 10 10 35 11 29 1 -3 -5 -10 -6 -16 -3 -7 4 -8 2 -4 -5 6
-8 12 -9 20 -2 7 6 17 7 21 3 5 -4 5 -1 1 6 -12 21 -15 82 -4 88 6 4 15 -1 20
-10 5 -9 22 -16 38 -16 24 0 31 5 36 28 4 15 18 37 32 48 21 19 24 27 18 57
-5 26 -11 35 -21 31 -9 -4 -18 3 -24 18 -13 35 -30 45 -95 57 -33 6 -60 11
-60 10 -1 0 -15 -11 -33 -22z"/>
<path d="M3574 775 c1 -8 6 -18 11 -22 4 -4 5 -2 1 5 -4 6 -2 12 4 12 6 0 8 5
5 10 -9 15 -24 12 -21 -5z"/>
<path d="M3643 702 c-14 -2 -24 -13 -28 -32 -3 -15 -15 -36 -26 -46 -25 -22
-25 -78 -1 -96 10 -7 21 -20 24 -28 4 -11 19 -15 57 -13 36 2 50 -1 45 -9 -4
-7 -3 -8 4 -4 7 4 12 15 12 24 0 15 2 15 10 2 6 -9 21 -14 40 -12 17 2 30 -1
30 -7 0 -8 7 -7 20 1 11 7 20 17 20 22 0 6 -5 5 -12 -2 -19 -19 -32 -14 -17 6
13 16 13 16 -5 2 -18 -14 -18 -13 -12 7 4 12 2 32 -5 45 -7 13 -13 34 -15 48
-5 55 -11 65 -50 78 -48 17 -63 19 -91 14z m121 -188 c3 -8 2 -12 -4 -9 -6 3
-10 10 -10 16 0 14 7 11 14 -7z"/>
<path d="M2936 573 c-4 -9 -4 -18 -1 -21 3 -3 5 0 5 6 0 6 8 12 18 14 15 3 16
4 0 10 -10 4 -19 1 -22 -9z"/>
<path d="M2836 557 c3 -10 9 -15 12 -12 3 3 0 11 -7 18 -10 9 -11 8 -5 -6z"/>
<path d="M2835 521 c-3 -5 -1 -12 5 -16 5 -3 10 -3 10 1 0 3 8 0 18 -7 14 -11
13 -10 -2 9 -22 25 -23 25 -31 13z"/>
<path d="M2716 491 c-3 -5 1 -11 9 -14 9 -4 12 -1 8 9 -6 16 -10 17 -17 5z"/>
<path d="M2756 472 c-3 -4 4 -9 15 -9 23 -2 25 3 4 10 -8 4 -16 3 -19 -1z"/>
</g>
</svg>
